<?xml version="1.0" encoding="UTF-8"?>
<!DOCTYPE svg PUBLIC "-//W3C//DTD SVG 1.1//EN" "http://www.w3.org/Graphics/SVG/1.1/DTD/svg11.dtd">
<!-- Creator: CorelDRAW 2019 (64-Bit) -->
<svg xmlns="http://www.w3.org/2000/svg" xml:space="preserve" width="1.62369in" height="1.70357in" version="1.1" style="shape-rendering:geometricPrecision; text-rendering:geometricPrecision; image-rendering:optimizeQuality; fill-rule:evenodd; clip-rule:evenodd"
viewBox="0 0 345.77 362.78"
 xmlns:xlink="http://www.w3.org/1999/xlink"
 xmlns:xodm="http://www.corel.com/coreldraw/odm/2003">
 <defs>
  <style type="text/css">
   <![CDATA[
    .str0 {stroke:#2F4B26;stroke-width:7.09;stroke-miterlimit:2.61313}
    .fil0 {fill:#2F4B26}
   ]]>
  </style>
 </defs>
 <g id="Layer_x0020_1">
  <metadata id="CorelCorpID_0Corel-Layer"/>
  <g id="_2107130680736">
   <path class="fil0 str0" d="M57.79 143.37l226.72 0.36 -2.76 195.22c-25.93,7.12 -195.21,7.14 -223.37,0.09l-0.59 -195.69 0 0.02zm241.38 25.95l26.16 1.62c-4.05,15.95 -4.2,26.77 -26.31,13.38l0.15 -15zm-256.52 17.93c-27.07,3.73 -20.86,3.15 -25.75,-17.32l26.34 0.89 -0.59 16.43 0 0 0 -0zm9.41 -58.01c-14.14,14.32 0.2,11.91 -25.34,24.74 -24.07,12.08 -25.19,4.61 -21.71,36.8 22.54,18.42 21.99,7 38.09,17.9 0.85,36.56 -7.34,111.45 7.29,140.1 23.48,13.99 217.63,13.84 241.68,0.15 13.81,-28.42 6.68,-99.76 6.71,-135.31 1.82,-9.28 74.07,-23.43 28.28,-53.85l-30.56 -21.77c-8.16,-7.46 0.23,-2.11 -9.4,-6.85 -6.32,-3.11 -5.97,-1.58 -13.66,-4.44 -12.85,-4.82 -4.32,1.85 -15.35,-6.47 11.81,-4.06 67.13,-24.75 72.1,-28.24 -33.67,-27.83 -79.36,31.15 -115.54,36.38 -39.24,5.67 -118.48,0.2 -162.61,0.86l0 0 -0 -0z"/>
   <path class="fil0 str0" d="M50.62 86.18c15.38,-28.94 83.21,-27.1 115.2,-32.35 34.1,-5.61 95.64,-27.46 121.64,-2.48 -11.58,7.61 -214.76,45.03 -236.83,34.83l0 -0zm-12.99 20.22l269.5 -40.26c-10.02,-66.25 -90.32,-34.71 -139.52,-27.01 -46.94,7.35 -144.21,4.03 -129.99,67.27l0.02 0 0 0z"/>
   <path class="fil0 str0" d="M148.46 8.53c-5.84,21.1 -7.97,6.4 4.8,22.42 17.41,-1.68 15.99,-0.33 17.75,-17.72 -16.34,-13.28 -1.55,-10.91 -22.55,-4.68l0 -0.02 0 -0z"/>
  </g>
 </g>
</svg>
