<?xml version="1.0" encoding="UTF-8"?>
<!DOCTYPE svg PUBLIC "-//W3C//DTD SVG 1.1//EN" "http://www.w3.org/Graphics/SVG/1.1/DTD/svg11.dtd">
<!-- Creator: CorelDRAW 2019 (64-Bit) -->
<svg xmlns="http://www.w3.org/2000/svg" xml:space="preserve" width="1.56302in" height="1.67784in" version="1.1" style="shape-rendering:geometricPrecision; text-rendering:geometricPrecision; image-rendering:optimizeQuality; fill-rule:evenodd; clip-rule:evenodd"
viewBox="0 0 545.44 585.51"
 xmlns:xlink="http://www.w3.org/1999/xlink"
 xmlns:xodm="http://www.corel.com/coreldraw/odm/2003">
 <defs>
  <style type="text/css">
   <![CDATA[
    .str0 {stroke:#2F4B26;stroke-width:14.54;stroke-miterlimit:2.61313}
    .fil0 {fill:#2F4B26}
   ]]>
  </style>
 </defs>
 <g id="Layer_x0020_1">
  <metadata id="CorelCorpID_0Corel-Layer"/>
  <g id="_2107130697088">
   <path class="fil0 str0" d="M386.43 447.76l19.23 -18.69c5.15,3.38 81.98,81.42 94.8,94.24 9.63,9.63 17.5,14.47 6.73,26.24 -12.47,13.64 -22.07,-2.56 -39.07,-19.55 -10.63,-10.63 -78.1,-76.89 -81.69,-82.24zm-195.16 -231.96l195.99 195.43c-1.7,2.59 -31.23,33.86 -36.49,35.55 -9.2,2.95 -16.87,-8.61 -24.85,-16.59l-79.2 -80.27c-32.49,-33.75 -55.46,-84.41 -55.46,-134.12zm153.89 255.37c14.56,0 12.27,-0.2 24.53,-6.69 4.41,6.59 34.57,32.09 34.57,36.8l0 39.03c0,6.7 -6.68,13.38 -13.38,13.38l-346.82 0c-6.7,0 -13.38,-6.68 -13.38,-13.38l0 -424.88c0,-3.75 1.81,-6.38 4.16,-8.11 5.19,-3.81 52.38,0.32 69.46,-42.06 6.2,-15.39 15.56,-34.59 40.13,-34.59l143.86 0c30.56,0 36.98,30.91 44.65,43.44 13.07,21.34 33.59,29.61 57.97,31.25 10.44,0.7 11.21,7.73 11.13,18.97l-0.01 267.65c-5.46,-3.65 -71.34,-70.85 -82.25,-81.68 -2.47,-2.45 -4.09,-4.93 -6.37,-7.01 -3.67,-3.36 -3.37,-2.47 -6.64,-6.74 -9.25,-12.09 -78.6,-76.89 -101.85,-103.34 -9.96,-11.32 -22.01,-25.66 -32.75,-14.37 -5.28,5.54 -3.99,19.94 -4.35,26.95 -2.82,54.18 17.96,107.9 50.06,147.32 8.16,10.02 107.77,111.41 114.99,114.74 2.83,1.31 8.19,3.31 12.3,3.31zm-337.9 -355.74l0 423.77c0,20.35 19.53,37.92 35.69,37.92l351.28 0c11.07,0 22.77,-9.06 27.75,-15.74 8.64,-11.6 7.94,-17.46 7.94,-36.67 20.82,13.94 42.19,53.53 66.91,53.53 14.94,0 18.67,-2.5 28.72,-12.54 14.95,-14.95 16.1,-24.37 6.25,-42.5 -6.32,-11.64 -24.78,-27.89 -34.69,-37.8l-60.22 -60.22c-6.35,-6.34 -8.26,-4.74 -8.12,-16.41 1.15,-94.99 -0.56,-193.31 0.05,-288.88 0.28,-44.1 -41.21,-36.76 -53.96,-43.06 -24.83,-12.27 -18.21,-29.8 -42.21,-53.69 -5.59,-5.57 -22.88,-15.87 -33.2,-15.87l-162.82 0c-6.08,0 -17.09,4.95 -21.55,7.44 -37.61,20.96 -22.11,49.25 -55.35,62.86 -9.14,3.75 -16.6,2.02 -25.76,4.35 -13.63,3.48 -26.7,16.76 -26.7,33.52z"/>
   <path class="fil0 str0" d="M153.36 109.87c0,-5.76 -1.33,-20.07 11.15,-20.07l108.17 0c14.2,0 17.5,31.22 -2.23,31.22l-103.71 0c-7.2,0 -13.38,-4.18 -13.38,-11.15zm-24.53 -11.15c0,15.25 -1.33,23.97 11.39,36.56 5.02,4.96 14.64,10.28 24.29,10.28l108.17 0c19.4,0 35.69,-18.45 35.69,-33.46l0 -12.27c0,-17.97 -17.45,-34.57 -35.69,-34.57l-108.17 0c-19.4,0 -35.69,18.45 -35.69,33.46z"/>
  </g>
 </g>
</svg>
