<?xml version="1.0" encoding="UTF-8"?>
<!DOCTYPE svg PUBLIC "-//W3C//DTD SVG 1.1//EN" "http://www.w3.org/Graphics/SVG/1.1/DTD/svg11.dtd">
<!-- Creator: CorelDRAW 2019 (64-Bit) -->
<svg xmlns="http://www.w3.org/2000/svg" xml:space="preserve" width="2.14257in" height="1.56904in" version="1.1" style="shape-rendering:geometricPrecision; text-rendering:geometricPrecision; image-rendering:optimizeQuality; fill-rule:evenodd; clip-rule:evenodd"
viewBox="0 0 10915.45 7993.56"
 xmlns:xlink="http://www.w3.org/1999/xlink"
 xmlns:xodm="http://www.corel.com/coreldraw/odm/2003">
 <defs>
  <style type="text/css">
   <![CDATA[
    .fil0 {fill:#2F4B26}
   ]]>
  </style>
 </defs>
 <g id="Layer_x0020_1">
  <metadata id="CorelCorpID_0Corel-Layer"/>
  <g id="_2107121456240">
   <path class="fil0" d="M4797.4 1055.18c3823.17,-1055.26 5424.35,4633.97 1753.07,5906.89 -3862.71,1339.39 -6077.6,-4713.18 -1753.07,-5906.89zm-298.63 -451.29c-4543.97,1515.29 -2509.42,8219.67 2149.45,6849.17 1731.03,-509.2 2898.97,-2603.71 2348.01,-4432.15 -577.75,-1917 -2508.95,-3080.19 -4497.3,-2417.01l-0.16 0z"/>
   <path class="fil0" d="M9946.34 567.3c574.64,446.28 510.68,2387.69 267.71,3098.7 -564.57,-185.53 -272.88,-2456.69 -267.71,-3098.7zm-360.97 3556.37l1060.59 30.65c312.71,-868.84 715.31,-4257.62 -1121.15,-4151.89 -158.43,1060.43 -252.74,3190.8 60.55,4121.25z"/>
   <path class="fil0" d="M377.96 2409.23l440.78 117.86c4.89,174.56 -26.21,583.37 -14.22,759.27 78.62,1149.43 1.79,420.64 246.52,758.39l186.27 -1457.11 500.17 -219.73c148.5,-657.26 396.51,-1867.84 -183.16,-2203.36 -423.17,857.89 175.46,1096.58 -407.32,1827.12l-52.85 -1846.08c-491.12,414.43 -337.14,-56.26 -389.25,919.63 -24.87,463.89 88.25,435.02 -71.81,832.56 -331.07,-842.93 221.79,-1066.51 -368.53,-1756.5 -386.75,542.51 -349.88,1658.18 113.42,2267.91l-0.02 0.04z"/>
   <path class="fil0" d="M9563.01 7985.34l1034.24 3.71c413.54,-823.23 381.71,-2859.86 -14.8,-3501.27 -249.33,333.29 -140.52,-304.43 -273.62,614.76 -74.17,511.24 163.91,1828.29 -104.24,2497.1 -618.47,-659.93 119.92,-2215.34 -452.19,-3113.78 -559.1,644.82 -292.88,2590.97 -189.38,3499.49z"/>
   <path class="fil0" d="M469.32 7854.9c714.26,162.28 349.28,229.8 997.37,-67.07 285.92,-756.32 383.64,-2806.26 -96.68,-3398.82 -579.68,744.61 35.98,2221.99 -368.53,3084.48 -225.95,-256.89 -261.63,529.77 -227.87,-1437.27 9.93,-582.49 90.02,-1143.79 -152.8,-1606.19 -631.65,341.44 -388.67,2720.24 -151.47,3425.01l-0.02 -0.14z"/>
   <path class="fil0" d="M3396.85 4278.86c399.32,-466.69 192.19,-252.9 388.97,-827.53 427.46,-1247.75 1203.92,-928.21 1953.71,-1469.24 -890.89,-868.26 -3086.99,895.64 -2342.82,2296.79l0.14 -0.02z"/>
   <path class="fil0" d="M5744.11 6219.67c-159.76,-163.17 -1804,-969.95 -2085.32,-1044.43 279.54,876.67 1273.22,1561.63 2085.32,1044.43z"/>
   <path class="fil0" d="M1237.48 2587.66l-186.27 1457.11c-244.6,-337.89 -167.9,391.04 -246.52,-758.39 -12.13,-175.9 18.95,-584.71 14.22,-759.27l-440.78 -117.86 305.15 293.9c5.03,1013.94 -259.12,1119.22 444.35,1532.32l109.87 -1647.97 -0.02 0.16z"/>
  </g>
 </g>
</svg>
